<svg width="227" height="21" viewBox="0 0 227 21" fill="none" xmlns="http://www.w3.org/2000/svg">
<path d="M0.650391 20V1.51562H6.33789C7.96289 1.51562 9.41439 1.88379 10.6924 2.62012C11.9788 3.34798 12.9818 4.389 13.7012 5.74316C14.4206 7.08887 14.7803 8.62077 14.7803 10.3389V11.1895C14.7803 12.9076 14.4248 14.4352 13.7139 15.7725C13.0114 17.1097 12.0169 18.1465 10.7305 18.8828C9.44401 19.6191 7.99251 19.9915 6.37598 20H0.650391ZM4.45898 4.60059V16.9404H6.2998C7.78939 16.9404 8.92773 16.4538 9.71484 15.4805C10.502 14.5072 10.904 13.1149 10.9209 11.3037V10.3262C10.9209 8.44727 10.5316 7.02539 9.75293 6.06055C8.97428 5.08724 7.83594 4.60059 6.33789 4.60059H4.45898ZM23.6416 20.2539C21.6273 20.2539 19.9854 19.6361 18.7158 18.4004C17.4548 17.1647 16.8242 15.5186 16.8242 13.4619V13.1064C16.8242 11.7269 17.0908 10.4954 17.624 9.41211C18.1572 8.32031 18.9105 7.48242 19.8838 6.89844C20.8656 6.30599 21.9827 6.00977 23.2354 6.00977C25.1143 6.00977 26.5911 6.60221 27.666 7.78711C28.7493 8.97201 29.291 10.652 29.291 12.8271V14.3252H20.5439C20.6624 15.2223 21.0179 15.9417 21.6104 16.4834C22.2113 17.0251 22.9688 17.2959 23.8828 17.2959C25.2962 17.2959 26.4007 16.7839 27.1963 15.7598L28.999 17.7783C28.4489 18.557 27.7041 19.1663 26.7646 19.6064C25.8252 20.0381 24.7842 20.2539 23.6416 20.2539ZM23.2227 8.98047C22.4948 8.98047 21.9023 9.22591 21.4453 9.7168C20.9967 10.2077 20.709 10.9102 20.582 11.8242H25.6855V11.5322C25.6686 10.7197 25.4486 10.0934 25.0254 9.65332C24.6022 9.20475 24.0013 8.98047 23.2227 8.98047ZM36.375 14.4902L35.0547 15.8105V20H31.3857V0.5H35.0547V11.3037L35.7656 10.3896L39.2822 6.26367H43.6875L38.7236 11.9893L44.1191 20H39.9043L36.375 14.4902ZM50.2637 14.4902L48.9434 15.8105V20H45.2744V0.5H48.9434V11.3037L49.6543 10.3896L53.1709 6.26367H57.5762L52.6123 11.9893L58.0078 20H53.793L50.2637 14.4902ZM65.2314 20.2539C63.2171 20.2539 61.5752 19.6361 60.3057 18.4004C59.0446 17.1647 58.4141 15.5186 58.4141 13.4619V13.1064C58.4141 11.7269 58.6807 10.4954 59.2139 9.41211C59.7471 8.32031 60.5003 7.48242 61.4736 6.89844C62.4554 6.30599 63.5726 6.00977 64.8252 6.00977C66.7041 6.00977 68.181 6.60221 69.2559 7.78711C70.3392 8.97201 70.8809 10.652 70.8809 12.8271V14.3252H62.1338C62.2523 15.2223 62.6077 15.9417 63.2002 16.4834C63.8011 17.0251 64.5586 17.2959 65.4727 17.2959C66.8861 17.2959 67.9906 16.7839 68.7861 15.7598L70.5889 17.7783C70.0387 18.557 69.2939 19.1663 68.3545 19.6064C67.415 20.0381 66.374 20.2539 65.2314 20.2539ZM64.8125 8.98047C64.0846 8.98047 63.4922 9.22591 63.0352 9.7168C62.5866 10.2077 62.2988 10.9102 62.1719 11.8242H67.2754V11.5322C67.2585 10.7197 67.0384 10.0934 66.6152 9.65332C66.1921 9.20475 65.5911 8.98047 64.8125 8.98047ZM80.6943 9.7041C80.195 9.63639 79.7549 9.60254 79.374 9.60254C77.986 9.60254 77.0762 10.0723 76.6445 11.0117V20H72.9756V6.26367H76.4414L76.543 7.90137C77.2793 6.6403 78.2992 6.00977 79.6025 6.00977C80.0088 6.00977 80.3896 6.06478 80.7451 6.1748L80.6943 9.7041ZM99.623 16.1914H92.9453L91.6758 20H87.626L94.5068 1.51562H98.0361L104.955 20H100.905L99.623 16.1914ZM93.9736 13.1064H98.5947L96.2715 6.1875L93.9736 13.1064ZM113.88 16.2041C113.88 15.7555 113.656 15.4043 113.207 15.1504C112.767 14.888 112.056 14.6553 111.074 14.4521C107.807 13.7666 106.174 12.3786 106.174 10.2881C106.174 9.06934 106.677 8.05371 107.685 7.24121C108.7 6.42025 110.025 6.00977 111.658 6.00977C113.402 6.00977 114.794 6.42025 115.835 7.24121C116.884 8.06217 117.409 9.12858 117.409 10.4404H113.74C113.74 9.91569 113.571 9.48405 113.232 9.14551C112.894 8.7985 112.365 8.625 111.646 8.625C111.028 8.625 110.549 8.76465 110.211 9.04395C109.872 9.32324 109.703 9.67871 109.703 10.1104C109.703 10.5166 109.894 10.8467 110.274 11.1006C110.664 11.346 111.315 11.5618 112.229 11.748C113.144 11.9258 113.914 12.1289 114.54 12.3574C116.478 13.0684 117.447 14.2998 117.447 16.0518C117.447 17.3044 116.91 18.32 115.835 19.0986C114.76 19.8688 113.372 20.2539 111.671 20.2539C110.52 20.2539 109.496 20.0508 108.599 19.6445C107.71 19.2298 107.012 18.667 106.504 17.9561C105.996 17.2367 105.742 16.4622 105.742 15.6328H109.221C109.255 16.2845 109.496 16.7839 109.944 17.1309C110.393 17.4779 110.994 17.6514 111.747 17.6514C112.45 17.6514 112.979 17.5202 113.334 17.2578C113.698 16.987 113.88 16.6357 113.88 16.2041ZM127.261 16.2041C127.261 15.7555 127.036 15.4043 126.588 15.1504C126.148 14.888 125.437 14.6553 124.455 14.4521C121.188 13.7666 119.555 12.3786 119.555 10.2881C119.555 9.06934 120.058 8.05371 121.065 7.24121C122.081 6.42025 123.406 6.00977 125.039 6.00977C126.783 6.00977 128.175 6.42025 129.216 7.24121C130.265 8.06217 130.79 9.12858 130.79 10.4404H127.121C127.121 9.91569 126.952 9.48405 126.613 9.14551C126.275 8.7985 125.746 8.625 125.026 8.625C124.409 8.625 123.93 8.76465 123.592 9.04395C123.253 9.32324 123.084 9.67871 123.084 10.1104C123.084 10.5166 123.274 10.8467 123.655 11.1006C124.045 11.346 124.696 11.5618 125.61 11.748C126.524 11.9258 127.295 12.1289 127.921 12.3574C129.859 13.0684 130.828 14.2998 130.828 16.0518C130.828 17.3044 130.291 18.32 129.216 19.0986C128.141 19.8688 126.753 20.2539 125.052 20.2539C123.901 20.2539 122.877 20.0508 121.979 19.6445C121.091 19.2298 120.393 18.667 119.885 17.9561C119.377 17.2367 119.123 16.4622 119.123 15.6328H122.602C122.635 16.2845 122.877 16.7839 123.325 17.1309C123.774 17.4779 124.375 17.6514 125.128 17.6514C125.83 17.6514 126.359 17.5202 126.715 17.2578C127.079 16.987 127.261 16.6357 127.261 16.2041ZM141.429 18.6035C140.523 19.7038 139.271 20.2539 137.671 20.2539C136.198 20.2539 135.073 19.8307 134.294 18.9844C133.524 18.138 133.13 16.8981 133.113 15.2646V6.26367H136.782V15.1377C136.782 16.568 137.434 17.2832 138.737 17.2832C139.981 17.2832 140.836 16.8516 141.302 15.9883V6.26367H144.983V20H141.53L141.429 18.6035ZM155.47 9.7041C154.97 9.63639 154.53 9.60254 154.149 9.60254C152.761 9.60254 151.852 10.0723 151.42 11.0117V20H147.751V6.26367H151.217L151.318 7.90137C152.055 6.6403 153.075 6.00977 154.378 6.00977C154.784 6.00977 155.165 6.06478 155.521 6.1748L155.47 9.7041ZM164.826 20C164.657 19.6699 164.534 19.2594 164.458 18.7686C163.569 19.7588 162.414 20.2539 160.992 20.2539C159.646 20.2539 158.529 19.8646 157.641 19.0859C156.76 18.3073 156.32 17.3255 156.32 16.1406C156.32 14.6849 156.858 13.5677 157.933 12.7891C159.016 12.0104 160.577 11.6169 162.617 11.6084H164.306V10.8213C164.306 10.1865 164.141 9.67871 163.811 9.29785C163.489 8.91699 162.977 8.72656 162.274 8.72656C161.657 8.72656 161.17 8.87467 160.814 9.1709C160.467 9.46712 160.294 9.87337 160.294 10.3896H156.625C156.625 9.59408 156.87 8.85775 157.361 8.18066C157.852 7.50358 158.546 6.97461 159.443 6.59375C160.34 6.20443 161.348 6.00977 162.465 6.00977C164.158 6.00977 165.499 6.43717 166.489 7.29199C167.488 8.13835 167.987 9.33171 167.987 10.8721V16.8262C167.996 18.1296 168.178 19.1156 168.533 19.7842V20H164.826ZM161.792 17.4482C162.334 17.4482 162.833 17.3298 163.29 17.0928C163.747 16.8473 164.086 16.5215 164.306 16.1152V13.7539H162.935C161.098 13.7539 160.12 14.3887 160.002 15.6582L159.989 15.874C159.989 16.3311 160.15 16.7077 160.472 17.0039C160.793 17.3001 161.233 17.4482 161.792 17.4482ZM174.183 6.26367L174.297 7.85059C175.279 6.62337 176.595 6.00977 178.245 6.00977C179.701 6.00977 180.784 6.43717 181.495 7.29199C182.206 8.14681 182.57 9.4248 182.587 11.126V20H178.918V11.2148C178.918 10.4362 178.749 9.87337 178.41 9.52637C178.072 9.1709 177.509 8.99316 176.722 8.99316C175.689 8.99316 174.915 9.43327 174.398 10.3135V20H170.729V6.26367H174.183ZM189.772 2.88672V6.26367H192.121V8.95508H189.772V15.8105C189.772 16.3184 189.87 16.6823 190.064 16.9023C190.259 17.1224 190.632 17.2324 191.182 17.2324C191.588 17.2324 191.948 17.2028 192.261 17.1436V19.9238C191.541 20.1439 190.801 20.2539 190.039 20.2539C187.466 20.2539 186.154 18.9548 186.104 16.3564V8.95508H184.098V6.26367H186.104V2.88672H189.772ZM198.037 20H194.355V6.26367H198.037V20ZM194.14 2.70898C194.14 2.15885 194.322 1.70605 194.686 1.35059C195.058 0.995117 195.562 0.817383 196.196 0.817383C196.823 0.817383 197.322 0.995117 197.694 1.35059C198.067 1.70605 198.253 2.15885 198.253 2.70898C198.253 3.26758 198.062 3.72461 197.682 4.08008C197.309 4.43555 196.814 4.61328 196.196 4.61328C195.578 4.61328 195.079 4.43555 194.698 4.08008C194.326 3.72461 194.14 3.26758 194.14 2.70898ZM207.394 20.2539C205.379 20.2539 203.737 19.6361 202.468 18.4004C201.207 17.1647 200.576 15.5186 200.576 13.4619V13.1064C200.576 11.7269 200.843 10.4954 201.376 9.41211C201.909 8.32031 202.662 7.48242 203.636 6.89844C204.618 6.30599 205.735 6.00977 206.987 6.00977C208.866 6.00977 210.343 6.60221 211.418 7.78711C212.501 8.97201 213.043 10.652 213.043 12.8271V14.3252H204.296C204.414 15.2223 204.77 15.9417 205.362 16.4834C205.963 17.0251 206.721 17.2959 207.635 17.2959C209.048 17.2959 210.153 16.7839 210.948 15.7598L212.751 17.7783C212.201 18.557 211.456 19.1663 210.517 19.6064C209.577 20.0381 208.536 20.2539 207.394 20.2539ZM206.975 8.98047C206.247 8.98047 205.654 9.22591 205.197 9.7168C204.749 10.2077 204.461 10.9102 204.334 11.8242H209.438V11.5322C209.421 10.7197 209.201 10.0934 208.777 9.65332C208.354 9.20475 207.753 8.98047 206.975 8.98047ZM205.235 2.6709C205.235 3.11947 205.07 3.50033 204.74 3.81348C204.41 4.11816 203.987 4.27051 203.471 4.27051C202.946 4.27051 202.523 4.11393 202.201 3.80078C201.88 3.48763 201.719 3.111 201.719 2.6709C201.719 2.23079 201.88 1.85417 202.201 1.54102C202.523 1.2194 202.946 1.05859 203.471 1.05859C203.995 1.05859 204.419 1.2194 204.74 1.54102C205.07 1.85417 205.235 2.23079 205.235 2.6709ZM207.901 2.6709C207.901 2.21387 208.071 1.83301 208.409 1.52832C208.756 1.21517 209.175 1.05859 209.666 1.05859C210.165 1.05859 210.58 1.21517 210.91 1.52832C211.249 1.84147 211.418 2.22233 211.418 2.6709C211.418 3.111 211.257 3.49186 210.936 3.81348C210.614 4.12663 210.191 4.2832 209.666 4.2832C209.141 4.2832 208.714 4.12663 208.384 3.81348C208.062 3.49186 207.901 3.111 207.901 2.6709ZM218.515 6.26367L218.629 7.85059C219.611 6.62337 220.927 6.00977 222.577 6.00977C224.033 6.00977 225.116 6.43717 225.827 7.29199C226.538 8.14681 226.902 9.4248 226.919 11.126V20H223.25V11.2148C223.25 10.4362 223.081 9.87337 222.742 9.52637C222.404 9.1709 221.841 8.99316 221.054 8.99316C220.021 8.99316 219.247 9.43327 218.73 10.3135V20H215.062V6.26367H218.515Z" fill="black"/>
</svg>
