<svg width="177" height="66" viewBox="0 0 177 66" fill="none" xmlns="http://www.w3.org/2000/svg">
<path d="M40.7314 60.2539C38.7171 60.2539 37.0752 59.6361 35.8057 58.4004C34.5446 57.1647 33.9141 55.5186 33.9141 53.4619V53.1064C33.9141 51.7269 34.1807 50.4954 34.7139 49.4121C35.2471 48.3203 36.0003 47.4824 36.9736 46.8984C37.9554 46.306 39.0726 46.0098 40.3252 46.0098C42.2041 46.0098 43.681 46.6022 44.7559 47.7871C45.8392 48.972 46.3809 50.652 46.3809 52.8271V54.3252H37.6338C37.7523 55.2223 38.1077 55.9417 38.7002 56.4834C39.3011 57.0251 40.0586 57.2959 40.9727 57.2959C42.3861 57.2959 43.4906 56.7839 44.2861 55.7598L46.0889 57.7783C45.5387 58.557 44.7939 59.1663 43.8545 59.6064C42.915 60.0381 41.874 60.2539 40.7314 60.2539ZM40.3125 48.9805C39.5846 48.9805 38.9922 49.2259 38.5352 49.7168C38.0866 50.2077 37.7988 50.9102 37.6719 51.8242H42.7754V51.5322C42.7585 50.7197 42.5384 50.0934 42.1152 49.6533C41.6921 49.2048 41.0911 48.9805 40.3125 48.9805ZM40.6426 40.5H44.6416L41.125 44.4355H38.1416L40.6426 40.5ZM54.7979 60.2539C52.7835 60.2539 51.1416 59.6361 49.8721 58.4004C48.611 57.1647 47.9805 55.5186 47.9805 53.4619V53.1064C47.9805 51.7269 48.2471 50.4954 48.7803 49.4121C49.3135 48.3203 50.0667 47.4824 51.04 46.8984C52.0218 46.306 53.139 46.0098 54.3916 46.0098C56.2705 46.0098 57.7474 46.6022 58.8223 47.7871C59.9056 48.972 60.4473 50.652 60.4473 52.8271V54.3252H51.7002C51.8187 55.2223 52.1742 55.9417 52.7666 56.4834C53.3675 57.0251 54.125 57.2959 55.0391 57.2959C56.4525 57.2959 57.557 56.7839 58.3525 55.7598L60.1553 57.7783C59.6051 58.557 58.8604 59.1663 57.9209 59.6064C56.9814 60.0381 55.9404 60.2539 54.7979 60.2539ZM54.3789 48.9805C53.651 48.9805 53.0586 49.2259 52.6016 49.7168C52.153 50.2077 51.8652 50.9102 51.7383 51.8242H56.8418V51.5322C56.8249 50.7197 56.6048 50.0934 56.1816 49.6533C55.7585 49.2048 55.1576 48.9805 54.3789 48.9805ZM54.709 40.5H58.708L55.1914 44.4355H52.208L54.709 40.5ZM66.4141 60H62.7324V40.5H66.4141V60ZM80.1377 57.042H86.8535V60H75.4531V57.7656L81.915 49.2344H75.6436V46.2637H86.6504V48.4346L80.1377 57.042ZM95.2705 60.2539C93.2562 60.2539 91.6143 59.6361 90.3447 58.4004C89.0837 57.1647 88.4531 55.5186 88.4531 53.4619V53.1064C88.4531 51.7269 88.7197 50.4954 89.2529 49.4121C89.7861 48.3203 90.5394 47.4824 91.5127 46.8984C92.4945 46.306 93.6117 46.0098 94.8643 46.0098C96.7432 46.0098 98.2201 46.6022 99.2949 47.7871C100.378 48.972 100.92 50.652 100.92 52.8271V54.3252H92.1729C92.2913 55.2223 92.6468 55.9417 93.2393 56.4834C93.8402 57.0251 94.5977 57.2959 95.5117 57.2959C96.9251 57.2959 98.0296 56.7839 98.8252 55.7598L100.628 57.7783C100.078 58.557 99.333 59.1663 98.3936 59.6064C97.4541 60.0381 96.4131 60.2539 95.2705 60.2539ZM94.8516 48.9805C94.1237 48.9805 93.5312 49.2259 93.0742 49.7168C92.6257 50.2077 92.3379 50.9102 92.2109 51.8242H97.3145V51.5322C97.2975 50.7197 97.0775 50.0934 96.6543 49.6533C96.2311 49.2048 95.6302 48.9805 94.8516 48.9805ZM108.004 54.4902L106.684 55.8105V60H103.015V40.5H106.684V51.3037L107.395 50.3896L110.911 46.2637H115.316L110.353 51.9893L115.748 60H111.533L108.004 54.4902ZM122.972 60.2539C120.957 60.2539 119.315 59.6361 118.046 58.4004C116.785 57.1647 116.154 55.5186 116.154 53.4619V53.1064C116.154 51.7269 116.421 50.4954 116.954 49.4121C117.487 48.3203 118.241 47.4824 119.214 46.8984C120.196 46.306 121.313 46.0098 122.565 46.0098C124.444 46.0098 125.921 46.6022 126.996 47.7871C128.079 48.972 128.621 50.652 128.621 52.8271V54.3252H119.874C119.993 55.2223 120.348 55.9417 120.94 56.4834C121.541 57.0251 122.299 57.2959 123.213 57.2959C124.626 57.2959 125.731 56.7839 126.526 55.7598L128.329 57.7783C127.779 58.557 127.034 59.1663 126.095 59.6064C125.155 60.0381 124.114 60.2539 122.972 60.2539ZM122.553 48.9805C121.825 48.9805 121.232 49.2259 120.775 49.7168C120.327 50.2077 120.039 50.9102 119.912 51.8242H125.016V51.5322C124.999 50.7197 124.779 50.0934 124.355 49.6533C123.932 49.2048 123.331 48.9805 122.553 48.9805ZM138.435 49.7041C137.935 49.6364 137.495 49.6025 137.114 49.6025C135.726 49.6025 134.816 50.0723 134.385 51.0117V60H130.716V46.2637H134.182L134.283 47.9014C135.02 46.6403 136.039 46.0098 137.343 46.0098C137.749 46.0098 138.13 46.0648 138.485 46.1748L138.435 49.7041ZM139.387 53.0303C139.387 50.889 139.865 49.1836 140.821 47.9141C141.786 46.6445 143.102 46.0098 144.77 46.0098C146.107 46.0098 147.211 46.5091 148.083 47.5078V40.5H151.765V60H148.451L148.273 58.54C147.359 59.6826 146.183 60.2539 144.744 60.2539C143.128 60.2539 141.828 59.6191 140.847 58.3496C139.873 57.0716 139.387 55.2985 139.387 53.0303ZM143.056 53.2969C143.056 54.5833 143.28 55.5693 143.729 56.2549C144.177 56.9404 144.829 57.2832 145.684 57.2832C146.818 57.2832 147.618 56.805 148.083 55.8486V50.4277C147.626 49.4714 146.835 48.9932 145.709 48.9932C143.94 48.9932 143.056 50.4277 143.056 53.2969ZM160.931 60.2539C158.916 60.2539 157.274 59.6361 156.005 58.4004C154.744 57.1647 154.113 55.5186 154.113 53.4619V53.1064C154.113 51.7269 154.38 50.4954 154.913 49.4121C155.446 48.3203 156.2 47.4824 157.173 46.8984C158.155 46.306 159.272 46.0098 160.524 46.0098C162.403 46.0098 163.88 46.6022 164.955 47.7871C166.038 48.972 166.58 50.652 166.58 52.8271V54.3252H157.833C157.951 55.2223 158.307 55.9417 158.899 56.4834C159.5 57.0251 160.258 57.2959 161.172 57.2959C162.585 57.2959 163.69 56.7839 164.485 55.7598L166.288 57.7783C165.738 58.557 164.993 59.1663 164.054 59.6064C163.114 60.0381 162.073 60.2539 160.931 60.2539ZM160.512 48.9805C159.784 48.9805 159.191 49.2259 158.734 49.7168C158.286 50.2077 157.998 50.9102 157.871 51.8242H162.975V51.5322C162.958 50.7197 162.738 50.0934 162.314 49.6533C161.891 49.2048 161.29 48.9805 160.512 48.9805ZM176.394 49.7041C175.894 49.6364 175.454 49.6025 175.073 49.6025C173.685 49.6025 172.775 50.0723 172.344 51.0117V60H168.675V46.2637H172.141L172.242 47.9014C172.979 46.6403 173.998 46.0098 175.302 46.0098C175.708 46.0098 176.089 46.0648 176.444 46.1748L176.394 49.7041Z" fill="black"/>
<path d="M54 0L16.8 40.909L6 32.729H0L16.8 60L60 0H54Z" fill="#5BC53B"/>
</svg>
