<svg width="144" height="21" viewBox="0 0 144 21" fill="none" xmlns="http://www.w3.org/2000/svg">
<path d="M7.73145 20.2539C5.71712 20.2539 4.0752 19.6361 2.80566 18.4004C1.5446 17.1647 0.914062 15.5186 0.914062 13.4619V13.1064C0.914062 11.7269 1.18066 10.4954 1.71387 9.41211C2.24707 8.32031 3.00033 7.48242 3.97363 6.89844C4.9554 6.30599 6.07259 6.00977 7.3252 6.00977C9.2041 6.00977 10.681 6.60221 11.7559 7.78711C12.8392 8.97201 13.3809 10.652 13.3809 12.8271V14.3252H4.63379C4.75228 15.2223 5.10775 15.9417 5.7002 16.4834C6.30111 17.0251 7.05859 17.2959 7.97266 17.2959C9.38607 17.2959 10.4906 16.7839 11.2861 15.7598L13.0889 17.7783C12.5387 18.557 11.7939 19.1663 10.8545 19.6064C9.91504 20.0381 8.87402 20.2539 7.73145 20.2539ZM7.3125 8.98047C6.58464 8.98047 5.99219 9.22591 5.53516 9.7168C5.08659 10.2077 4.79883 10.9102 4.67188 11.8242H9.77539V11.5322C9.75846 10.7197 9.53841 10.0934 9.11523 9.65332C8.69206 9.20475 8.09115 8.98047 7.3125 8.98047ZM7.64258 0.5H11.6416L8.125 4.43555H5.1416L7.64258 0.5ZM21.7979 20.2539C19.7835 20.2539 18.1416 19.6361 16.8721 18.4004C15.611 17.1647 14.9805 15.5186 14.9805 13.4619V13.1064C14.9805 11.7269 15.2471 10.4954 15.7803 9.41211C16.3135 8.32031 17.0667 7.48242 18.04 6.89844C19.0218 6.30599 20.139 6.00977 21.3916 6.00977C23.2705 6.00977 24.7474 6.60221 25.8223 7.78711C26.9056 8.97201 27.4473 10.652 27.4473 12.8271V14.3252H18.7002C18.8187 15.2223 19.1742 15.9417 19.7666 16.4834C20.3675 17.0251 21.125 17.2959 22.0391 17.2959C23.4525 17.2959 24.557 16.7839 25.3525 15.7598L27.1553 17.7783C26.6051 18.557 25.8604 19.1663 24.9209 19.6064C23.9814 20.0381 22.9404 20.2539 21.7979 20.2539ZM21.3789 8.98047C20.651 8.98047 20.0586 9.22591 19.6016 9.7168C19.153 10.2077 18.8652 10.9102 18.7383 11.8242H23.8418V11.5322C23.8249 10.7197 23.6048 10.0934 23.1816 9.65332C22.7585 9.20475 22.1576 8.98047 21.3789 8.98047ZM21.709 0.5H25.708L22.1914 4.43555H19.208L21.709 0.5ZM33.4141 20H29.7324V0.5H33.4141V20ZM47.1377 17.042H53.8535V20H42.4531V17.7656L48.915 9.23438H42.6436V6.26367H53.6504V8.43457L47.1377 17.042ZM62.2705 20.2539C60.2562 20.2539 58.6143 19.6361 57.3447 18.4004C56.0837 17.1647 55.4531 15.5186 55.4531 13.4619V13.1064C55.4531 11.7269 55.7197 10.4954 56.2529 9.41211C56.7861 8.32031 57.5394 7.48242 58.5127 6.89844C59.4945 6.30599 60.6117 6.00977 61.8643 6.00977C63.7432 6.00977 65.2201 6.60221 66.2949 7.78711C67.3783 8.97201 67.9199 10.652 67.9199 12.8271V14.3252H59.1729C59.2913 15.2223 59.6468 15.9417 60.2393 16.4834C60.8402 17.0251 61.5977 17.2959 62.5117 17.2959C63.9251 17.2959 65.0296 16.7839 65.8252 15.7598L67.6279 17.7783C67.0778 18.557 66.333 19.1663 65.3936 19.6064C64.4541 20.0381 63.4131 20.2539 62.2705 20.2539ZM61.8516 8.98047C61.1237 8.98047 60.5312 9.22591 60.0742 9.7168C59.6257 10.2077 59.3379 10.9102 59.2109 11.8242H64.3145V11.5322C64.2975 10.7197 64.0775 10.0934 63.6543 9.65332C63.2311 9.20475 62.6302 8.98047 61.8516 8.98047ZM75.0039 14.4902L73.6836 15.8105V20H70.0146V0.5H73.6836V11.3037L74.3945 10.3896L77.9111 6.26367H82.3164L77.3525 11.9893L82.748 20H78.5332L75.0039 14.4902ZM89.9717 20.2539C87.9574 20.2539 86.3154 19.6361 85.0459 18.4004C83.7848 17.1647 83.1543 15.5186 83.1543 13.4619V13.1064C83.1543 11.7269 83.4209 10.4954 83.9541 9.41211C84.4873 8.32031 85.2406 7.48242 86.2139 6.89844C87.1956 6.30599 88.3128 6.00977 89.5654 6.00977C91.4443 6.00977 92.9212 6.60221 93.9961 7.78711C95.0794 8.97201 95.6211 10.652 95.6211 12.8271V14.3252H86.874C86.9925 15.2223 87.348 15.9417 87.9404 16.4834C88.5413 17.0251 89.2988 17.2959 90.2129 17.2959C91.6263 17.2959 92.7308 16.7839 93.5264 15.7598L95.3291 17.7783C94.779 18.557 94.0342 19.1663 93.0947 19.6064C92.1553 20.0381 91.1143 20.2539 89.9717 20.2539ZM89.5527 8.98047C88.8249 8.98047 88.2324 9.22591 87.7754 9.7168C87.3268 10.2077 87.0391 10.9102 86.9121 11.8242H92.0156V11.5322C91.9987 10.7197 91.7786 10.0934 91.3555 9.65332C90.9323 9.20475 90.3314 8.98047 89.5527 8.98047ZM105.435 9.7041C104.935 9.63639 104.495 9.60254 104.114 9.60254C102.726 9.60254 101.816 10.0723 101.385 11.0117V20H97.7158V6.26367H101.182L101.283 7.90137C102.02 6.6403 103.039 6.00977 104.343 6.00977C104.749 6.00977 105.13 6.06478 105.485 6.1748L105.435 9.7041ZM106.387 13.0303C106.387 10.889 106.865 9.18359 107.821 7.91406C108.786 6.64453 110.102 6.00977 111.77 6.00977C113.107 6.00977 114.211 6.50911 115.083 7.50781V0.5H118.765V20H115.451L115.273 18.54C114.359 19.6826 113.183 20.2539 111.744 20.2539C110.128 20.2539 108.828 19.6191 107.847 18.3496C106.873 17.0716 106.387 15.2985 106.387 13.0303ZM110.056 13.2969C110.056 14.5833 110.28 15.5693 110.729 16.2549C111.177 16.9404 111.829 17.2832 112.684 17.2832C113.818 17.2832 114.618 16.805 115.083 15.8486V10.4277C114.626 9.47135 113.835 8.99316 112.709 8.99316C110.94 8.99316 110.056 10.4277 110.056 13.2969ZM127.931 20.2539C125.916 20.2539 124.274 19.6361 123.005 18.4004C121.744 17.1647 121.113 15.5186 121.113 13.4619V13.1064C121.113 11.7269 121.38 10.4954 121.913 9.41211C122.446 8.32031 123.2 7.48242 124.173 6.89844C125.155 6.30599 126.272 6.00977 127.524 6.00977C129.403 6.00977 130.88 6.60221 131.955 7.78711C133.038 8.97201 133.58 10.652 133.58 12.8271V14.3252H124.833C124.951 15.2223 125.307 15.9417 125.899 16.4834C126.5 17.0251 127.258 17.2959 128.172 17.2959C129.585 17.2959 130.69 16.7839 131.485 15.7598L133.288 17.7783C132.738 18.557 131.993 19.1663 131.054 19.6064C130.114 20.0381 129.073 20.2539 127.931 20.2539ZM127.512 8.98047C126.784 8.98047 126.191 9.22591 125.734 9.7168C125.286 10.2077 124.998 10.9102 124.871 11.8242H129.975V11.5322C129.958 10.7197 129.738 10.0934 129.314 9.65332C128.891 9.20475 128.29 8.98047 127.512 8.98047ZM143.394 9.7041C142.894 9.63639 142.454 9.60254 142.073 9.60254C140.685 9.60254 139.775 10.0723 139.344 11.0117V20H135.675V6.26367H139.141L139.242 7.90137C139.979 6.6403 140.998 6.00977 142.302 6.00977C142.708 6.00977 143.089 6.06478 143.444 6.1748L143.394 9.7041Z" fill="white"/>
</svg>
